<svg width="40" height="40" viewBox="0 0 40 40" fill="none" xmlns="http://www.w3.org/2000/svg">
<path d="M17.2222 17.2222V2.77778C17.2222 1.24365 18.4659 0 20 0V0V0C21.5341 0 22.7778 1.24365 22.7778 2.77778V17.2222H37.2222C38.7563 17.2222 40 18.4659 40 20V20V20C40 21.5341 38.7563 22.7778 37.2222 22.7778H22.7778V37.2222C22.7778 38.7563 21.5341 40 20 40V40V40C18.4659 40 17.2222 38.7563 17.2222 37.2222V22.7778H2.77778C1.24365 22.7778 0 21.5341 0 20V20V20C0 18.4659 1.24365 17.2222 2.77778 17.2222H17.2222Z" fill="#4ABD14"/>
</svg>
